<svg width="32" height="32" viewBox="0 0 32 32" fill="none" xmlns="http://www.w3.org/2000/svg">
<g clip-path="url(#clip0_924_32680)">
<path d="M14 21.5C13.7239 21.5 13.5 21.7239 13.5 22C13.5 22.2761 13.7239 22.5 14 22.5H19C19.2761 22.5 19.5 22.2761 19.5 22C19.5 21.7239 19.2761 21.5 19 21.5H14Z" fill="#999CA0"/>
<path fill-rule="evenodd" clip-rule="evenodd" d="M18.6688 6.57322C17.3972 5.56934 15.6028 5.56934 14.3312 6.57322L7.83124 11.7048C6.99051 12.3685 6.5 13.3807 6.5 14.4519V22.4981C6.5 24.4311 8.067 25.9981 10 25.9981H23C24.933 25.9981 26.5 24.4311 26.5 22.4981V14.4519C26.5 13.3807 26.0095 12.3685 25.1688 11.7048L18.6688 6.57322ZM14.9509 7.3581C15.8592 6.64104 17.1408 6.64104 18.0491 7.3581L24.5491 12.4897C25.1496 12.9638 25.5 13.6868 25.5 14.4519V22.4981C25.5 23.8788 24.3807 24.9981 23 24.9981H10C8.61929 24.9981 7.5 23.8788 7.5 22.4981V14.4519C7.5 13.6868 7.85036 12.9638 8.45089 12.4897L14.9509 7.3581Z" fill="#999CA0"/>
</g>
<defs>
<clipPath id="clip0_924_32680">
<rect width="32" height="32" fill="white"/>
</clipPath>
</defs>
</svg>
