<svg width="32" height="32" viewBox="0 0 32 32" fill="none" xmlns="http://www.w3.org/2000/svg">
<path d="M15.0399 15.88C14.4999 15.88 13.9499 15.78 13.5199 15.59L7.6199 12.97C6.1199 12.3 5.8999 11.4 5.8999 10.91C5.8999 10.42 6.1199 9.52 7.6199 8.85L13.5199 6.23C14.3899 5.84 15.6999 5.84 16.5699 6.23L22.4799 8.85C23.9699 9.51 24.1999 10.42 24.1999 10.91C24.1999 11.4 23.9799 12.3 22.4799 12.97L16.5699 15.59C16.1299 15.79 15.5899 15.88 15.0399 15.88ZM15.0399 7.44C14.6999 7.44 14.3699 7.49 14.1299 7.6L8.2299 10.22C7.6199 10.5 7.3999 10.78 7.3999 10.91C7.3999 11.04 7.6199 11.33 8.2199 11.6L14.1199 14.22C14.5999 14.43 15.4699 14.43 15.9499 14.22L21.8599 11.6C22.4699 11.33 22.6899 11.04 22.6899 10.91C22.6899 10.78 22.4699 10.49 21.8599 10.22L15.9599 7.6C15.7199 7.5 15.3799 7.44 15.0399 7.44Z" fill="#999CA0"/>
<path d="M15.25 21.09C14.87 21.09 14.49 21.01 14.13 20.85L7.34 17.83C6.31 17.38 5.5 16.13 5.5 15C5.5 14.59 5.84 14.25 6.25 14.25C6.66 14.25 7 14.59 7 15C7 15.55 7.45 16.24 7.95 16.47L14.74 19.49C15.06 19.63 15.43 19.63 15.76 19.49L22.55 16.47C23.05 16.25 23.5 15.55 23.5 15C23.5 14.59 23.84 14.25 24.25 14.25C24.66 14.25 25 14.59 25 15C25 16.13 24.19 17.38 23.16 17.84L16.37 20.86C16.01 21.01 15.63 21.09 15.25 21.09Z" fill="#999CA0"/>
<path d="M15.25 26.0883C14.87 26.0883 14.49 26.0083 14.13 25.8483L7.34 22.8283C6.22 22.3283 5.5 21.2183 5.5 19.9883C5.5 19.5783 5.84 19.2383 6.25 19.2383C6.66 19.2383 7 19.5883 7 19.9983C7 20.6283 7.37 21.2083 7.95 21.4683L14.74 24.4883C15.06 24.6283 15.43 24.6283 15.76 24.4883L22.55 21.4683C23.13 21.2083 23.5 20.6383 23.5 19.9983C23.5 19.5883 23.84 19.2483 24.25 19.2483C24.66 19.2483 25 19.5883 25 19.9983C25 21.2283 24.28 22.3383 23.16 22.8383L16.37 25.8583C16.01 26.0083 15.63 26.0883 15.25 26.0883Z" fill="#999CA0"/>
</svg>
