<svg width="32" height="32" viewBox="0 0 32 32" fill="none" xmlns="http://www.w3.org/2000/svg">
<g clip-path="url(#clip0_924_11115)">
<path d="M6 14.5C6 13.73 6.013 12.977 6.04 12.25C6.123 9.87701 6.165 8.69001 7.13 7.71701C8.095 6.74501 9.316 6.69301 11.756 6.58801C13.1699 6.52865 14.5849 6.49931 16 6.50001C17.48 6.50001 18.905 6.53001 20.244 6.58801C22.684 6.69301 23.904 6.74501 24.87 7.71801C25.835 8.69001 25.877 9.87701 25.96 12.25C26.0127 13.7495 26.0127 15.2505 25.96 16.75C25.877 19.123 25.835 20.31 24.87 21.283C23.905 22.255 22.684 22.307 20.244 22.412C19.5093 22.4433 18.751 22.4667 17.969 22.482C17.229 22.496 16.858 22.502 16.532 22.627C16.206 22.752 15.932 22.985 15.384 23.455L13.205 25.325C13.0989 25.4159 12.9691 25.4744 12.8307 25.4937C12.6924 25.513 12.5515 25.4922 12.4246 25.4337C12.2978 25.3753 12.1903 25.2817 12.1151 25.1641C12.0398 25.0464 11.9999 24.9097 12 24.77V22.422L11.756 22.412C9.316 22.307 8.096 22.255 7.13 21.282C6.165 20.31 6.123 19.123 6.04 16.75C6.01348 16.0003 6.00015 15.2502 6 14.5Z" stroke="#999CA0" stroke-width="1.5" stroke-linecap="round" stroke-linejoin="round"/>
<path d="M16.126 14.5H16M12.124 14.5H12M20.125 14.5H20M16.25 14.5C16.25 14.5663 16.2237 14.6299 16.1768 14.6768C16.1299 14.7237 16.0663 14.75 16 14.75C15.9337 14.75 15.8701 14.7237 15.8232 14.6768C15.7763 14.6299 15.75 14.5663 15.75 14.5C15.75 14.4337 15.7763 14.3701 15.8232 14.3232C15.8701 14.2763 15.9337 14.25 16 14.25C16.0663 14.25 16.1299 14.2763 16.1768 14.3232C16.2237 14.3701 16.25 14.4337 16.25 14.5ZM12.25 14.5C12.25 14.5663 12.2237 14.6299 12.1768 14.6768C12.1299 14.7237 12.0663 14.75 12 14.75C11.9337 14.75 11.8701 14.7237 11.8232 14.6768C11.7763 14.6299 11.75 14.5663 11.75 14.5C11.75 14.4337 11.7763 14.3701 11.8232 14.3232C11.8701 14.2763 11.9337 14.25 12 14.25C12.0663 14.25 12.1299 14.2763 12.1768 14.3232C12.2237 14.3701 12.25 14.4337 12.25 14.5ZM20.25 14.5C20.25 14.5663 20.2237 14.6299 20.1768 14.6768C20.1299 14.7237 20.0663 14.75 20 14.75C19.9337 14.75 19.8701 14.7237 19.8232 14.6768C19.7763 14.6299 19.75 14.5663 19.75 14.5C19.75 14.4337 19.7763 14.3701 19.8232 14.3232C19.8701 14.2763 19.9337 14.25 20 14.25C20.0663 14.25 20.1299 14.2763 20.1768 14.3232C20.2237 14.3701 20.25 14.4337 20.25 14.5Z" stroke="#999CA0" stroke-width="1.5" stroke-linecap="round" stroke-linejoin="round"/>
</g>
<defs>
<clipPath id="clip0_924_11115">
<rect width="32" height="32" fill="white"/>
</clipPath>
</defs>
</svg>
