<svg width="32" height="32" viewBox="0 0 32 32" fill="none" xmlns="http://www.w3.org/2000/svg">
<path d="M12.5 8.75C12.09 8.75 11.75 8.41 11.75 8V5C11.75 4.59 12.09 4.25 12.5 4.25C12.91 4.25 13.25 4.59 13.25 5V8C13.25 8.41 12.91 8.75 12.5 8.75Z" fill="#999CA0"/>
<path d="M20.5 8.75C20.09 8.75 19.75 8.41 19.75 8V5C19.75 4.59 20.09 4.25 20.5 4.25C20.91 4.25 21.25 4.59 21.25 5V8C21.25 8.41 20.91 8.75 20.5 8.75Z" fill="#999CA0"/>
<path d="M25 12.8398H8C7.59 12.8398 7.25 12.4998 7.25 12.0898C7.25 11.6798 7.59 11.3398 8 11.3398H25C25.41 11.3398 25.75 11.6798 25.75 12.0898C25.75 12.4998 25.41 12.8398 25 12.8398Z" fill="#999CA0"/>
<path d="M20.5 25.75H12.5C8.85 25.75 6.75 23.65 6.75 20V11.5C6.75 7.85 8.85 5.75 12.5 5.75H20.5C24.15 5.75 26.25 7.85 26.25 11.5V20C26.25 23.65 24.15 25.75 20.5 25.75ZM12.5 7.25C9.64 7.25 8.25 8.64 8.25 11.5V20C8.25 22.86 9.64 24.25 12.5 24.25H20.5C23.36 24.25 24.75 22.86 24.75 20V11.5C24.75 8.64 23.36 7.25 20.5 7.25H12.5Z" fill="#999CA0"/>
<path d="M13 17.5C12.87 17.5 12.74 17.47 12.62 17.42C12.5 17.37 12.39 17.3 12.29 17.21C12.2 17.11 12.13 17 12.08 16.88C12.03 16.76 12 16.63 12 16.5C12 16.24 12.11 15.98 12.29 15.79C12.39 15.7 12.5 15.63 12.62 15.58C12.8 15.5 13 15.48 13.2 15.52C13.26 15.53 13.32 15.55 13.38 15.58C13.44 15.6 13.5 15.63 13.56 15.67C13.61 15.71 13.66 15.75 13.71 15.79C13.75 15.84 13.8 15.89 13.83 15.94C13.87 16 13.9 16.06 13.92 16.12C13.95 16.18 13.97 16.24 13.98 16.3C13.99 16.37 14 16.43 14 16.5C14 16.76 13.89 17.02 13.71 17.21C13.52 17.39 13.26 17.5 13 17.5Z" fill="#999CA0"/>
<path d="M16.5 17.4989C16.24 17.4989 15.98 17.3889 15.79 17.2089C15.75 17.1589 15.71 17.1089 15.67 17.0589C15.63 16.9989 15.6 16.9389 15.58 16.8789C15.55 16.8189 15.53 16.7589 15.52 16.6989C15.51 16.6289 15.5 16.5689 15.5 16.4989C15.5 16.3689 15.53 16.2389 15.58 16.1189C15.63 15.9989 15.7 15.8889 15.79 15.7889C16.07 15.5089 16.52 15.4189 16.88 15.5789C17.01 15.6289 17.11 15.6989 17.21 15.7889C17.39 15.9789 17.5 16.2389 17.5 16.4989C17.5 16.5689 17.49 16.6289 17.48 16.6989C17.47 16.7589 17.45 16.8189 17.42 16.8789C17.4 16.9389 17.37 16.9989 17.33 17.0589C17.29 17.1089 17.25 17.1589 17.21 17.2089C17.11 17.2989 17.01 17.3689 16.88 17.4189C16.76 17.4689 16.63 17.4989 16.5 17.4989Z" fill="#999CA0"/>
<path d="M13 20.9989C12.87 20.9989 12.74 20.9689 12.62 20.9189C12.5 20.8689 12.39 20.7989 12.29 20.7089C12.2 20.6089 12.13 20.5089 12.08 20.3789C12.03 20.2589 12 20.1289 12 19.9989C12 19.7389 12.11 19.4789 12.29 19.2889C12.39 19.1989 12.5 19.1289 12.62 19.0789C12.99 18.9189 13.43 19.0089 13.71 19.2889C13.75 19.3389 13.8 19.3889 13.83 19.4389C13.87 19.4989 13.9 19.5589 13.92 19.6189C13.95 19.6789 13.97 19.7389 13.98 19.8089C13.99 19.8689 14 19.9389 14 19.9989C14 20.2589 13.89 20.5189 13.71 20.7089C13.52 20.8889 13.26 20.9989 13 20.9989Z" fill="#999CA0"/>
</svg>
